/* XPM */
static char * default_xpm[] = {
"48 48 371 2",
"  	c None",
". 	c #7D8EB9",
"+ 	c #7889B4",
"@ 	c #798AB7",
"# 	c #7183B1",
"$ 	c #EAF2BF",
"% 	c #E7EFB3",
"& 	c #E9F1B6",
"* 	c #E5ECB4",
"= 	c #C0D066",
"- 	c #99AD28",
"; 	c #A6B0CF",
"> 	c #97A4C8",
", 	c #9CA8CA",
"' 	c #8292BE",
") 	c #788AB6",
"! 	c #7083B2",
"~ 	c #6F82B5",
"{ 	c #6B80B3",
"] 	c #7488BB",
"^ 	c #7486B5",
"/ 	c #EFF5CB",
"( 	c #E9F0B8",
"_ 	c #E3EDA8",
": 	c #E7F2A0",
"< 	c #E3EF94",
"[ 	c #E6F1A1",
"} 	c #D8E397",
"| 	c #A9BA43",
"1 	c #9CB220",
"2 	c #95A924",
"3 	c #9AA6CB",
"4 	c #5D74A9",
"5 	c #677CB0",
"6 	c #7185B6",
"7 	c #7A8CB7",
"8 	c #8797C1",
"9 	c #808FBB",
"0 	c #6D81B2",
"a 	c #6278AD",
"b 	c #5A71A6",
"c 	c #586EA3",
"d 	c #576DA2",
"e 	c #657BAF",
"f 	c #7283B3",
"g 	c #EDF3C5",
"h 	c #E6EEAB",
"i 	c #E5F197",
"j 	c #DCE985",
"k 	c #D6E47D",
"l 	c #D7E481",
"m 	c #E0EA9E",
"n 	c #C5D179",
"o 	c #9CB02B",
"p 	c #94AA20",
"q 	c #97A924",
"r 	c #94A1C9",
"s 	c #4D679E",
"t 	c #4D679D",
"u 	c #4C669D",
"v 	c #4D669E",
"w 	c #546DA4",
"x 	c #637BAF",
"y 	c #7284B2",
"z 	c #6B80AE",
"A 	c #556EA5",
"B 	c #4E679E",
"C 	c #4E689E",
"D 	c #5971A8",
"E 	c #6E80B0",
"F 	c #EEF4C7",
"G 	c #E4EEA5",
"H 	c #DFEC87",
"I 	c #D4E375",
"J 	c #D3E175",
"K 	c #D3E174",
"L 	c #D9E684",
"M 	c #DBE59A",
"N 	c #B0C057",
"O 	c #98AD20",
"P 	c #96AA21",
"Q 	c #8D9CC4",
"R 	c #436099",
"S 	c #446199",
"T 	c #425F98",
"U 	c #44619A",
"V 	c #446098",
"W 	c #48649D",
"X 	c #6479AB",
"Y 	c #E8F1B1",
"Z 	c #DFED84",
"` 	c #D1E16B",
" .	c #D1E06C",
"..	c #DCE88B",
"+.	c #CED988",
"@.	c #9FB138",
"#.	c #92A81D",
"$.	c #94A824",
"%.	c #8696C0",
"&.	c #3A5B94",
"*.	c #3B5B94",
"=.	c #395A94",
"-.	c #536EA5",
";.	c #EDF2CA",
">.	c #E2ED98",
",.	c #D3E367",
"'.	c #CEDE62",
").	c #CFDF64",
"!.	c #CEDE61",
"~.	c #D2E16A",
"{.	c #DCE792",
"].	c #B9C76B",
"^.	c #93A724",
"/.	c #8FA31E",
"(.	c #7F90BC",
"_.	c #305590",
":.	c #315590",
"<.	c #395C97",
"[.	c #6177A9",
"}.	c #EBF2C3",
"|.	c #E1EF89",
"1.	c #CCDE57",
"2.	c #CCDD5A",
"3.	c #CDDE5B",
"4.	c #D4E270",
"5.	c #D4DF8E",
"6.	c #A1B249",
"7.	c #8BA01B",
"8.	c #8DA020",
"9.	c #788AB8",
"0.	c #27518D",
"a.	c #28518D",
"b.	c #29528E",
"c.	c #46669F",
"d.	c #EAF0C4",
"e.	c #E0EE83",
"f.	c #CADC4E",
"g.	c #CBDC53",
"h.	c #CBDC52",
"i.	c #CFE05F",
"j.	c #D2DD8F",
"k.	c #8B9D2C",
"l.	c #829618",
"m.	c #889B1E",
"n.	c #7185B3",
"o.	c #1E4D89",
"p.	c #1F4D89",
"q.	c #1F4C89",
"r.	c #1E4D8A",
"s.	c #40629B",
"t.	c #DFEC8C",
"u.	c #C9DC47",
"v.	c #C9DB4B",
"w.	c #C9DC4B",
"x.	c #D4E180",
"y.	c #9CAF33",
"z.	c #697FAF",
"A.	c #144986",
"B.	c #154986",
"C.	c #164B89",
"D.	c #406199",
"E.	c #E1EAA1",
"F.	c #CEE14B",
"G.	c #C7DA43",
"H.	c #C7DB44",
"I.	c #C6DA41",
"J.	c #D1E160",
"K.	c #C2D167",
"L.	c #91A61B",
"M.	c #DDEA85",
"N.	c #C3D269",
"O.	c #627AAB",
"P.	c #074684",
"Q.	c #064583",
"R.	c #144E8E",
"S.	c #DAEA6D",
"T.	c #C4D939",
"U.	c #C5DA3E",
"V.	c #C6DA3E",
"W.	c #D2E078",
"X.	c #9DB030",
"Y.	c #D8E67F",
"Z.	c #D4E55F",
"`.	c #D0E34D",
" +	c #C1D060",
".+	c #5C75A7",
"++	c #004382",
"@+	c #004281",
"#+	c #255490",
"$+	c #DFE99D",
"%+	c #CCE041",
"&+	c #C4D938",
"*+	c #C3D835",
"=+	c #CDDF56",
"-+	c #C1D069",
";+	c #C2D069",
">+	c #D7E57A",
",+	c #D4E55B",
"'+	c #CADF3E",
")+	c #C4D935",
"!+	c #CADE43",
"~+	c #C0D05D",
"{+	c #576FA2",
"]+	c #004181",
"^+	c #004180",
"/+	c #004080",
"(+	c #0D498A",
"_+	c #3B5C95",
":+	c #D6E37B",
"<+	c #C3D930",
"[+	c #C3D834",
"}+	c #C4D936",
"|+	c #CFDF5D",
"1+	c #CFE24C",
"2+	c #C7DC36",
"3+	c #C3D831",
"4+	c #C9DD3F",
"5+	c #BFCF5A",
"6+	c #526A9F",
"7+	c #003F80",
"8+	c #003F7F",
"9+	c #014182",
"0+	c #2B538E",
"a+	c #D4E565",
"b+	c #C1D72C",
"c+	c #C2D831",
"d+	c #C1D72E",
"e+	c #C2D82F",
"f+	c #C2D830",
"g+	c #C8DD3B",
"h+	c #BECF56",
"i+	c #4D669B",
"j+	c #013F7F",
"k+	c #003E7E",
"l+	c #003E7F",
"m+	c #1E4C8A",
"n+	c #D3E65A",
"o+	c #C0D72C",
"p+	c #C1D830",
"q+	c #C1D82F",
"r+	c #C6DD39",
"s+	c #BECF53",
"t+	c #486198",
"u+	c #184987",
"v+	c #D3E659",
"w+	c #C0D72B",
"x+	c #C1D82E",
"y+	c #C6DC38",
"z+	c #BCCE4E",
"A+	c #435E95",
"B+	c #154885",
"C+	c #D1E260",
"D+	c #C0D82B",
"E+	c #C6DC37",
"F+	c #BCCD4B",
"G+	c #3F5A93",
"H+	c #154786",
"I+	c #D2E170",
"J+	c #C2DA2D",
"K+	c #C6DC36",
"L+	c #BACD47",
"M+	c #3B5791",
"N+	c #024182",
"O+	c #154985",
"P+	c #D8E585",
"Q+	c #CBE23C",
"R+	c #C6DC35",
"S+	c #B9CC44",
"T+	c #36558F",
"U+	c #064486",
"V+	c #D1E35B",
"W+	c #C5DC34",
"X+	c #B8CC3F",
"Y+	c #30528E",
"Z+	c #084483",
"`+	c #D4E27A",
" @	c #CCE23D",
".@	c #C0D82D",
"+@	c #C5DC33",
"@@	c #B7CB3C",
"#@	c #2A508C",
"$@	c #014386",
"%@	c #D2E266",
"&@	c #C5DC31",
"*@	c #C5DC32",
"=@	c #B6CB37",
"-@	c #244E8B",
";@	c #004183",
">@	c #D0E258",
",@	c #C4DB2F",
"'@	c #C4DA34",
")@	c #C8DF35",
"!@	c #CAE135",
"~@	c #CAE134",
"{@	c #CEE636",
"]@	c #B7CC35",
"^@	c #24508E",
"/@	c #084587",
"(@	c #074486",
"_@	c #064485",
":@	c #064383",
"<@	c #023F7F",
"[@	c #004082",
"}@	c #004282",
"|@	c #CEE153",
"1@	c #C3DA31",
"2@	c #C5DA3A",
"3@	c #B5C83F",
"4@	c #B4C63B",
"5@	c #C9DB46",
"6@	c #C7DA42",
"7@	c #C9DF3C",
"8@	c #2D528C",
"9@	c #2C5490",
"0@	c #29518E",
"a@	c #20437E",
"b@	c #18366F",
"c@	c #104584",
"d@	c #003D7D",
"e@	c #004182",
"f@	c #CEDD61",
"g@	c #C9E039",
"h@	c #C5DB39",
"i@	c #9EB22C",
"j@	c #051C51",
"k@	c #0D4482",
"l@	c #004284",
"m@	c #CBDF4A",
"n@	c #C2D92E",
"o@	c #C4DA36",
"p@	c #A7BC2E",
"q@	c #8DA120",
"r@	c #042B62",
"s@	c #094382",
"t@	c #003F81",
"u@	c #CBDD54",
"v@	c #C4DB30",
"w@	c #C4DB34",
"x@	c #ACC12D",
"y@	c #02316B",
"z@	c #034281",
"A@	c #004081",
"B@	c #CCDC57",
"C@	c #CCE23E",
"D@	c #C1D82D",
"E@	c #C3DA2F",
"F@	c #C7DD35",
"G@	c #C3D937",
"H@	c #C5DB34",
"I@	c #A3B82B",
"J@	c #00326C",
"K@	c #004588",
"L@	c #023F7D",
"M@	c #063D74",
"N@	c #CBDF42",
"O@	c #C4DC30",
"P@	c #CAE234",
"Q@	c #C6DD37",
"R@	c #0B3E72",
"S@	c #CADE42",
"T@	c #C7DF31",
"U@	c #C8E032",
"V@	c #CBE235",
"W@	c #C6DB38",
"X@	c #C7DB3C",
"Y@	c #CADE4F",
"Z@	c #CCE04B",
"`@	c #C7DC3F",
" #	c #C7DB3F",
".#	c #C8DC40",
"+#	c #C7DB40",
"                                                                                                ",
"                                                                                                ",
"                                                                                                ",
"                                                                                                ",
"                                                                                                ",
"                                                                                                ",
"                                                                                                ",
"                                                                                                ",
"                                                                                                ",
"                                                                                                ",
"                                                                                                ",
"                                                                                      . + @ #   ",
"                                  $ % & * = -           ; > ,                 ' ) ! ~ { ] ^     ",
"                          / ( _ : < [ } | 1 2           3 4 5 6 7 8       9 0 a b c d e f       ",
"                      g h i j k l m n o p q             r s t u v w x y z A u B C t D E         ",
"                  F G H I J K L M N O P                 Q R S S S S T U S V S S S W X           ",
"                Y Z `  . . ...+.@.#.$.                  %.&.*.*.*.*.*.*.*.*.*.*.=.-.            ",
"            ;.>.,.'.).!.~.{.].^./.                      (._.:.:.:.:.:.:.:.:.:.:.<.[.            ",
"          }.|.1.2.3.2.4.5.6.7.8.                        9.0.a.a.a.a.a.a.a.a.a.a.b.c.            ",
"        d.e.f.g.g.h.i.j.k.l.m.                          n.o.p.p.p.p.p.p.p.p.p.p.q.r.s.          ",
"        t.u.v.w.w.w.w.x.y.                              z.A.B.B.B.B.B.B.B.B.B.B.B.A.C.D.        ",
"      E.F.G.H.H.H.H.I.J.K.L.          M.N.              O.P.P.P.P.P.P.P.P.P.P.P.P.P.Q.R.S       ",
"      S.T.U.U.U.U.U.U.V.W.X.      Y.Z.`. +              .+++++++++++++++++++++++++++++@+#+      ",
"    $+%+&+T.T.T.T.T.T.*+=+-+;+>+,+'+)+!+~+              {+]+^+^+^+^+^+^+^+^+^+^+^+^+^+/+(+_+    ",
"    :+<+*+[+[+[+[+[+[+[+}+|+1+2+3+[+[+4+5+              6+7+8+8+8+8+8+8+8+8+8+8+8+8+8+8+9+0+    ",
"    a+b+c+c+c+c+c+c+c+c+c+d+e+c+c+c+f+g+h+              i+j+k+k+k+k+k+k+k+k+k+k+k+k+k+k+l+m+    ",
"    n+o+p+p+p+p+p+p+p+p+p+p+p+p+p+p+q+r+s+              t+j+k+k+k+k+k+k+k+k+k+k+k+k+k+k+k+u+    ",
"    v+w+q+q+q+q+q+q+q+q+q+q+q+q+q+q+x+y+z+              A+j+k+k+k+k+k+k+k+k+k+k+k+k+k+k+k+B+    ",
"    C+D+q+q+q+q+q+q+q+q+q+q+q+q+q+q+x+E+F+              G+j+k+k+k+k+k+k+k+k+k+k+k+k+k+k+l+H+    ",
"    I+J+q+q+q+q+q+q+q+q+q+q+q+q+q+q+x+K+L+              M+j+k+k+k+k+k+k+k+k+k+k+k+k+k+k+N+O+    ",
"    P+Q+x+q+q+q+q+q+q+q+q+q+q+q+q+q+x+R+S+              T+j+k+k+k+k+k+k+k+k+k+k+k+k+k+k+U+      ",
"      V+D+q+q+q+q+q+q+q+q+q+q+q+q+q+q+W+X+              Y+j+k+k+k+k+k+k+k+k+k+k+k+k+k+7+Z+      ",
"      `+ @.@q+q+q+q+q+q+q+q+q+q+q+q+q++@@@              #@j+k+k+k+k+k+k+k+k+k+k+k+k+k+$@        ",
"        %@&@x+q+q+q+q+q+q+q+x+q+q+q+q+*@=@              -@8+k+k+k+k+k+k+k+k+k+k+k+k+;@++        ",
"          >@,@x+q+q+q+q+q+p+'@)@!@~@~@{@]@              ^@/@(@_@:@<@k+k+k+k+k+k+k+[@}@          ",
"            |@1@q+q+q+q+x+2@3@4@5@6@V.7@                8@9@0@a@b@c@d@k+k+k+k+k+;@e@            ",
"            f@g@x+q+q+q+x+h@i@                                  j@k@k+k+k+k+l+l@/+              ",
"            m@n@q+q+q+q+x+o@p@q@                                r@s@k+k+k+[@t@7+                ",
"          u@)@x+q+q+q+q+v@w@x@                                  y@z@l+[@A@j+                    ",
"        B@C@D@q+q+q+E@F@G@H@I@                                  J@K@L@M@                        ",
"        N@n@q+x+O@P@Q@                                            R@                            ",
"      S@T@U@V@K+W@X@                                                                            ",
"  Y@Z@`@ #.#+#                                                                                  ",
"                                                                                                ",
"                                                                                                ",
"                                                                                                ",
"                                                                                                ",
"                                                                                                "};
