/* XPM */
static char *default2-0[] = {
/* columns rows colors chars-per-pixel */
"48 48 4 1",
"  c black",
". c navy",
"X c red",
"o c None",
/* pixels */
"oooooooooooooooooooooooooooooooooooooooooooooooo",
"oooooooooooooooooooooooooooooooooooooooooooooooo",
"oooooooooooooooooooooooooooooooooooooooooooooooo",
"oooooooooooooooooooooooooooooooooooooooooooooooo",
"oooooooooooooooooooooooooooooooooooooooooooooooo",
"ooooooXXXXXXXXXXXXXXXXXXXXXXXXXXXXXXXXXXXooooooo",
"ooooooXXXXXXXXXXXXXXXXXXXXXXXXXXXXXXXXXXXooooooo",
"ooooooXXXXXXXXXXXXXXXXXXXXXXXXXXXXXXXXXXXooooooo",
"ooooooXXXXXXXXXXXXXXXXXXXXXXXXXXXXXXXXXXXooooooo",
"ooooooXXXXoooooooooooooooooooooooooooXXXXooooooo",
"ooooooXXXXoooooooooooooooooooooooooooXXXXooooooo",
"ooooooXXXXoooooooooooooooooooooooooooXXXXooooooo",
"ooooooXXXXoooooooooooooooooooooooooooXXXXooooooo",
"ooooooXXXXoooooooooooooooooooooooooooXXXXooooooo",
"ooooooXXXXoooooooooooooooooooooooooooXXXXooooooo",
"ooooooXXXXoooooooooooooooooooooooooooXXXXooooooo",
"ooooooXXXXoooooooooooooooooooooooooooXXXXooooooo",
"ooooooXXXXoooooooooooooooooooooooooooXXXXooooooo",
"ooooooXXXXooooooooo..ooooooooooooooooXXXXooooooo",
"oooooXXXXXooooo.........oooooooooooooXXXXooooooo",
"oooooXXXXXoooo............oooooooooooXXXXooooooo",
"oooooXXXXXooo.............oooooooooooXXXXooooooo",
"oooooXXXXXooo..............o.ooooooooXXXXooooooo",
"oooooXXXXXooo..............o.....ooooXXXXooooooo",
"oooooXXXXXooo..............o......oooXXXXooooooo",
"oooooXXXXXooo..............o.......ooXXXXooooooo",
"oooooXXXXXoooo............o........ooXXXXooooooo",
"oooooXXXXXooooo..........o.........ooXXoXooooooo",
"oooooXXXXXoooooo......oo...........ooXXoXooooooo",
"oooooXXXXXoooooo...ooo.............ooXXoXooooooo",
"oooooXXXXXoooooo.ooooo............oooXXooooooooo",
"oooooXXXXXooooooooooooo..........ooooXXooooooooo",
"oooooXXXXXoooooooooooooooo......oooooXXooooooooo",
"oooooXXXXXooooooooooooooooooo...oooooXXooooooooo",
"oooooXXXXXooooooooooooooooooooo..ooooooooooooooo",
"oooooXXXXXoooooooooooooooooooooooooooooooooooooo",
"oooooXXXXXoooooooooooooooooooooooooooooooooooooo",
"oooooXXXXXXooooooooooooooooooooooooooooooooooooo",
"oooooXXXXXXXXXXXXXXXXXXXXXXXXXXXXXXXXXXXoooooooo",
"oooooXXXXXXXXXXXXXXXXXXXXXXXXXXXXXXXXXXXoooooooo",
"oooooXXXXXXXXXXXXXXXXXXXXXXXXXXXXXXXXXXooooooooo",
"oooooXXXXXXXXXXXXXXXXXXXXXXXXXXXXXXXXXXooooooooo",
"oooooooXXXXXXXXXXXXXXXXXXXXXXXXXXXXXXXXooooooooo",
"oooooooooooooooooooooooooooooooooooooXXooooooooo",
"oooooooooooooooooooooooooooooooooooooooooooooooo",
"oooooooooooooooooooooooooooooooooooooooooooooooo",
"oooooooooooooooooooooooooooooooooooooooooooooooo",
"oooooooooooooooooooooooooooooooooooooooooooooooo"
};
