/* XPM */
static char * Login_xpm[] = {
"48 48 45 1",
" 	c None",
".	c #0C0046",
"+	c #0C004B",
"@	c #0D0050",
"#	c #0D0051",
"$	c #0E0051",
"%	c #0E0052",
"&	c #0E0053",
"*	c #0E0054",
"=	c #0E0055",
"-	c #C72A00",
";	c #CC2B00",
">	c #CE2B00",
",	c #D12C00",
"'	c #D42D00",
")	c #D52D00",
"!	c #D72D00",
"~	c #DA2D00",
"{	c #D92E00",
"]	c #DB2D00",
"^	c #DB2E00",
"/	c #DE2E00",
"(	c #E02E00",
"_	c #E02F00",
":	c #E13000",
"<	c #E42F00",
"[	c #E43000",
"}	c #E53000",
"|	c #E63000",
"1	c #E93000",
"2	c #E83100",
"3	c #E93100",
"4	c #EA3100",
"5	c #EB3100",
"6	c #EC3100",
"7	c #ED3100",
"8	c #EE3100",
"9	c #ED3200",
"0	c #EE3200",
"a	c #EF3200",
"b	c #F03200",
"c	c #F13200",
"d	c #F23200",
"e	c #F13300",
"f	c #F23300",
"                                                ",
"  eccccccccccccccccccccccccccccccccccccccc      ",
"  ccccccccccccccccccccc0666665555acccccccc      ",
"  ccccccccccccccccccccc74444133330cccccccc^     ",
"  cccb3333333333|_///////////////22222470c~     ",
"  ccc3                                 [2c^     ",
"  ccc|                                 :[4^     ",
"  ccc|                                 ccc^     ",
"  ccc|                                 ccc^     ",
"  ccc|                                 ccc^     ",
"  ccc|                                 ccc^     ",
"  ccc|                                 ccc^     ",
"  ccc5                                 ccc^     ",
"  cccc                                 ccc^     ",
"  cccc                                 ccc^     ",
"  cccc                                 ccc^     ",
"  cccc                                 ccc^     ",
"  cccc                                 ccc^     ",
"  cccc                                 dcc^     ",
"  cccc                                  c ^     ",
"  cccc                                  c )     ",
"  cccc                                  c ;     ",
" ecccc                                 fc       ",
" fcccc                                 cc       ",
" fcccc                                 cc       ",
" fcccc                     &***=       fc       ",
" fcccc                    ******&       c       ",
" fcccc                   ********#      c       ",
" ccccc                  &********%      c       ",
" ccccc                  *********&      c       ",
" ccccc                  *********&              ",
" ccccc                   ********%              ",
" ccccc                   ********+              ",
" ccccc                    ******@               ",
" ccccc                     &&&$.                ",
" ccccc                                          ",
" cccc0                                          ",
" cccc|                                          ",
" cccc|                                          ",
" cccc9',{                                       ",
" cccccaabcccccccccccccccccccccccccccccccc       ",
"fccccccccccccccccccccccccccccccccccccccc8       ",
" cccccccccccccccccccccccccccccccccccccca        ",
"  ccccccccccccccccccccccccccccccccccccc8        ",
"    >!~~](<<<<<<<<<<<<<<<<<<<<<<<}5556b6        ",
"                                       -        ",
"                                                ",
"                                                "};
